<svg width="22" height="16" viewBox="0 0 22 16" fill="none" xmlns="http://www.w3.org/2000/svg">
<path fill-rule="evenodd" clip-rule="evenodd" d="M5.97666 4.0398C4.46562 5.21377 3.25629 6.63095 2.53686 7.57012L2.53274 7.57549L2.53272 7.57548C2.43841 7.69689 2.38721 7.84626 2.38721 8C2.38721 8.15374 2.43841 8.30311 2.53272 8.42452L2.53688 8.42987L2.53686 8.42988C3.25629 9.36905 4.46562 10.7862 5.97666 11.9602C7.49897 13.1429 9.22556 14 11 14C12.7745 14 14.5011 13.1429 16.0234 11.9602C17.5343 10.7863 18.7436 9.36919 19.4631 8.43003M5.97666 4.0398C7.49897 2.85707 9.22556 2 11 2ZM4.74961 2.46045C6.43705 1.14942 8.59246 0 11 0C13.4076 0 15.563 1.14942 17.2504 2.46045C18.9491 3.78023 20.2773 5.34405 21.0509 6.35388L20.257 6.962L21.0514 6.35464C21.7993 7.33287 21.7999 8.66792 21.051 9.64597L21.0509 9.64612C20.2773 10.656 18.9491 12.2198 17.2504 13.5396C15.563 14.8506 13.4076 16 11 16C8.59246 16 6.43705 14.8506 4.74961 13.5396C3.05223 12.2208 1.72481 10.6584 0.950978 9.64849C0.585543 9.1767 0.387207 8.59683 0.387207 8C0.387207 7.40315 0.585555 6.82326 0.951011 6.35147C1.72485 5.34156 3.05226 3.77917 4.74961 2.46045ZM19.4628 7.56963C18.7433 6.63047 17.5341 5.21357 16.0234 4.0398C14.5011 2.85707 12.7745 2 11 2M19.4628 7.56963C19.6627 7.83132 19.662 8.17005 19.4632 8.42988Z" fill="#838688"/>
<path fill-rule="evenodd" clip-rule="evenodd" d="M11 6C9.89543 6 9 6.89543 9 8C9 9.10457 9.89543 10 11 10C12.1046 10 13 9.10457 13 8C13 6.89543 12.1046 6 11 6ZM7 8C7 5.79086 8.79086 4 11 4C13.2091 4 15 5.79086 15 8C15 10.2091 13.2091 12 11 12C8.79086 12 7 10.2091 7 8Z" fill="#838688"/>
</svg>
